<svg width="264" height="258" xmlns="http://www.w3.org/2000/svg" xmlns:xlink="http://www.w3.org/1999/xlink" xml:space="preserve" overflow="hidden"><g transform="translate(-508 -67)"><path d="M119.354 239.648 132.981 239.648 137.21 239.178 141.205 238.474 145.199 238.474 149.663 237.769 153.892 236.829 156.006 236.359 158.121 235.654 162.115 234.244 166.814 232.365C179.945 227.061 192.096 219.596 202.761 210.28L206.051 207.46 207.695 206.286 209.105 205.346 211.454 204.171 213.334 202.996 216.858 200.177 220.382 196.653 222.262 194.303 224.377 191.719C227.74 187.392 230.801 182.839 233.54 178.092 234.914 175.728 236.169 173.297 237.299 170.808L237.769 169.868 238.239 168.929 238.943 167.049 239.648 164.934 240.118 163.995 240.118 163.055 241.058 160.235 241.528 158.826 241.528 158.121 241.763 158.121 241.763 157.651 243.408 151.777C243.877 149.663 244.347 147.783 244.582 145.669 244.843 143.642 245 141.603 245.052 139.56L245.052 132.276C245.052 131.572 245.052 129.927 245.287 128.752L245.287 123.818C245.569 121.794 245.726 119.753 245.757 117.71L245.757 111.601C245.757 109.486 245.522 109.017 245.522 107.842L245.052 104.318C244.817 101.968 244.112 99.6185 243.877 97.269 243.642 94.9195 243.408 94.9195 243.173 93.9797L242.468 90.6904 241.763 87.4012 241.763 83.407 240.823 80.1177 240.353 78.4731 239.883 76.8284 238.943 73.5391 237.769 70.2499 236.829 67.9004 235.654 65.5509 233.305 60.6169C231.719 57.486 230.307 54.2702 229.076 50.984 228.646 49.927 228.006 48.9679 227.196 48.1646L225.551 46.7549 225.081 46.0501 224.377 44.8753C223.223 43.007 221.968 41.2031 220.617 39.4715L218.738 36.887 216.623 34.3026 215.684 33.1279 215.214 32.423 214.744 31.9531 214.509 31.9531 212.394 29.6036 211.219 28.4289 210.045 27.2541 207.93 24.6697 205.346 22.3202C202.49 19.8217 199.511 17.4692 196.418 15.2717L196.183 14.097 193.128 11.9824C185.936 6.77514 177.795 3.02392 169.164 0.939797L161.88 0.939797C160.849 1.05641 160.107 1.98715 160.223 3.01865 160.253 3.28006 160.337 3.53235 160.47 3.75919 161.395 5.18261 162.696 6.32134 164.23 7.04848L162.82 7.75333 161.88 7.28343C161.92 7.05013 161.92 6.81189 161.88 6.57858 161.645 5.40383 161.41 4.46404 158.826 3.52424L153.422 1.64465 152.012 1.17475 150.603 1.17475 147.548 0 144.494 2.81939C126.896-0.4038 108.786 0.56206 91.6302 5.63878 85.5446 6.1408 79.5456 7.40372 73.7741 9.39797L72.5993 9.39797 71.4246 9.86787 69.0751 10.8077 66.7256 11.9824 64.6111 13.3921 60.382 16.9164 58.5024 18.326 56.8577 19.9707C54.5083 22.0852 52.3937 24.4347 50.2792 26.5493L46.9899 30.0735 43.7006 33.5978 42.5258 34.7725 41.3511 35.9473 38.7666 38.2967C32.8022 43.2744 27.2978 48.7788 22.3202 54.7432L22.7901 53.5685 24.1998 50.984 25.6095 48.3996 27.0192 45.8151 28.4289 42.9957 29.8386 40.1763 32.658 34.5376 33.5978 32.658 34.3026 31.2483C34.5641 30.6489 34.5641 29.968 34.3026 29.3687 33.9915 28.4613 33.8327 27.5086 33.8327 26.5493 32.1303 27.2955 30.4816 28.1591 28.8988 29.1337L25.3745 31.7182 23.4949 33.1279 21.8503 34.7725 19.9707 37.122 18.7959 39.4715 17.6212 41.821 17.1513 42.9957 16.4465 44.1705 15.7416 45.5802 14.8018 47.4598 13.862 49.3394 12.2174 53.3335 11.0426 56.3878 9.86787 59.4422 9.86787 61.0868 9.39797 62.4965 8.69313 65.5509 8.69313 66.0208 7.75333 66.0208 7.75333 66.7256 7.28343 68.3703 6.57858 71.6596 6.10868 73.3042 5.63878 74.9488 4.69899 78.943 3.75919 83.407 3.28929 85.5216 3.28929 92.1001 1.87959 96.5642C1.62929 99.7687 1.55087 102.984 1.64465 106.197 0.532179 112.954-0.0179233 119.79-2.80081e-08 126.638-0.0369411 127.185-0.0369411 127.735-2.80081e-08 128.282 1.17475 135.331 1.87959 142.379 3.52424 149.428L4.46404 153.657 5.63878 157.886C6.04278 159.24 6.51324 160.573 7.04848 161.88L7.98828 163.76 8.92807 165.639 11.0426 169.633 12.2174 171.513 13.3921 173.393 14.5669 175.272 15.7416 177.152 18.326 180.911C21.6153 185.61 25.1396 190.309 28.8988 194.773 30.8223 196.993 32.8612 199.111 35.0075 201.117L36.6521 202.526 37.3569 203.231 38.2967 203.936 41.821 206.52 44.1705 208.87C49.817 214.674 56.3131 219.586 63.4363 223.437L66.7256 225.081 70.2499 226.726 71.8945 227.431 73.7741 228.136 77.2983 229.546 79.4129 230.485 81.2925 231.425 83.1721 232.365 85.5216 233.305 89.9856 234.949 94.4496 236.359 98.2088 237.299 101.968 238.239 105.727 238.943 119.119 238.943Z" transform="matrix(1 0 0 1.00056 517.135 76.1083)"/><path d="M117.432 184.776 109.504 176.848 132.155 154.196 109.504 131.554 117.432 123.626 148.008 154.196Z" fill="#FFFFFF" transform="matrix(1 0 0 1.00056 484.981 16.1704)"/><path d="M149.384 175.205 200.535 175.205 200.535 186.419 149.384 186.419Z" fill="#FFFFFF" transform="matrix(1 0 0 1.00056 484.981 16.1704)"/><path d="M6.9361 26.3094C6.97597 23.3595 6.97597 20.4097 6.97597 17.4598 6.97597 16.9416 7.01583 16.3836 7.05569 15.8653 7.05569 15.5863 7.01583 15.3073 7.01583 15.0681 7.01583 15.0282 6.97597 14.9884 6.9361 14.9884 6.77665 14.9485 6.6172 14.9485 6.49761 14.9485L2.07286 14.9485 1.35533 14.9485C1.23574 14.9485 1.11615 14.9086 1.03643 14.8688 0.956704 14.8688 0.876978 14.789 0.837116 14.7093 0.837116 14.5499 0.797253 14.4303 0.75739 14.2708 0.518215 13.5932 0.518215 12.9155 0.59794 12.198 0.637802 12.0385 0.717528 11.8791 0.75739 11.7196 0.797253 11.6399 0.876978 11.5602 0.956704 11.5602 1.03643 11.5203 1.11615 11.5203 1.19588 11.5203L1.71409 11.5203 14.2708 11.5203 15.2674 11.5203C15.387 11.5203 15.4667 11.5203 15.5863 11.5602 15.7059 11.5602 15.7856 11.6 15.8255 11.7196 16.0248 12.6763 16.1045 13.633 15.8653 14.5499 15.7856 14.7492 15.666 14.8688 15.5066 14.9086 15.2674 14.9086 15.0681 14.9485 14.8688 14.9485L11.0021 14.9485 10.4042 14.9485C10.3244 14.9884 10.2447 15.0681 10.2447 15.1478L10.2447 15.387C10.3244 15.7856 10.2846 16.1842 10.2846 16.543L10.2846 35.5575C10.2846 35.9561 10.2447 36.3547 10.2447 36.7534L10.2447 37.8297 10.2447 38.5073C10.2048 38.6269 10.1251 38.7465 10.0055 38.7864 9.40759 38.8661 8.80965 38.9458 8.17184 38.9458 7.89281 38.906 7.61377 38.8661 7.37459 38.7864 7.21514 38.7465 7.13542 38.6269 7.13542 38.4675 7.09555 38.029 7.05569 37.5905 7.05569 37.1121 6.97597 35.6372 6.97597 34.1623 6.97597 32.6874L6.97597 30.0166 6.97597 28.0234 6.97597 26.3094 6.9361 26.3094ZM25.9964 9.96566 26.5944 9.72649C27.0727 9.52717 27.5909 9.56704 28.0693 9.72649 28.1889 9.76635 28.3085 9.84608 28.3085 9.96566 28.3483 10.2447 28.3882 10.5237 28.4281 10.7629 28.5078 11.3609 28.4281 11.9588 28.5476 12.5169 28.5875 12.6763 28.5476 12.8756 28.5476 13.0351 28.5476 14.231 28.5476 15.4268 28.6672 16.6227 28.747 17.8983 28.747 19.1739 28.747 20.4495 28.747 20.7286 28.7868 21.0076 28.8267 21.2468L28.8267 21.9245 28.8267 23.5987C28.8267 23.6784 28.8665 23.7581 28.8665 23.8379 28.8665 23.9176 28.9861 23.9973 29.0659 23.9575 29.1854 23.9575 29.305 23.9176 29.4246 23.8777 29.7037 23.7581 29.9827 23.6784 30.2617 23.5588 30.3813 23.519 30.5408 23.4791 30.6604 23.4791 31.0191 23.4791 31.2982 23.3994 31.6171 23.3197 32.0556 23.2001 32.494 23.2001 32.9325 23.2001 33.0123 23.2001 33.1318 23.2399 33.2116 23.2798 33.2913 23.3197 33.4109 23.3994 33.4109 23.4791 33.6102 24.1568 33.7696 24.8743 33.7298 25.5918 33.7298 25.7513 33.7298 25.9107 33.6899 26.0702 33.6501 26.2296 33.5703 26.3094 33.4507 26.3492 33.2514 26.3891 33.092 26.4688 32.8927 26.4688 32.2549 26.4688 31.6569 26.6283 31.0989 26.7877 30.4212 26.9472 29.7834 27.1863 29.1057 27.3856 28.9463 27.4255 28.9064 27.5451 28.9064 27.7045 28.9064 28.5018 28.8267 29.2991 28.9064 30.0564 28.9463 30.2558 28.9463 30.4551 28.9463 30.6544L28.9463 37.2716C28.9463 38.308 28.8665 39.3843 28.8267 40.4207 28.8267 40.5802 28.7071 40.6998 28.5476 40.6998 28.3085 40.6998 28.0693 40.7396 27.8301 40.7795 27.1923 40.8592 26.5146 40.8991 25.8768 40.7396 25.6377 40.6599 25.5181 40.5403 25.5181 40.341 25.4384 39.9822 25.3985 39.5836 25.3985 39.2249 25.3188 36.0358 25.3586 32.8468 25.3586 29.6578 25.3586 29.4186 25.3985 29.1795 25.2789 28.9403 25.1992 28.9403 25.0796 28.9403 24.9999 28.9802 24.3222 29.2193 23.6844 29.4585 23.0067 29.6977 22.8074 29.7774 22.7277 29.897 22.7277 30.0963L22.7277 30.7341 22.7277 36.9128C22.7277 37.1919 22.7277 37.4709 22.6878 37.7101 22.6878 37.9094 22.6081 37.9891 22.4088 38.029 21.8507 38.1087 21.2528 38.1884 20.6548 38.1884 20.4157 38.1884 20.1765 38.1486 19.9373 38.0688 19.8974 38.0688 19.8576 38.0688 19.8177 38.029 19.6184 37.9492 19.4988 37.8297 19.4988 37.5905 19.459 37.1919 19.459 36.7534 19.459 36.3547 19.4191 34.7204 19.4191 33.1259 19.4191 31.4915L19.4191 30.8537C19.4191 30.4949 19.3792 30.4551 19.0205 30.4551 18.861 30.4152 18.6617 30.4152 18.4624 30.3753 18.3428 30.3753 18.2631 30.2956 18.2232 30.2159 18.1036 29.8173 17.984 29.4186 18.0239 28.9802 18.0239 28.6613 18.0239 28.3025 18.1036 27.9836 18.1834 27.7843 18.2631 27.6248 18.5023 27.585 18.7813 27.4654 19.1002 27.3856 19.4191 27.3059 19.459 27.1863 19.459 27.0667 19.459 26.9472 19.4988 25.9107 19.4988 24.9142 19.5387 23.8777 19.5387 23.2798 19.5387 22.6819 19.5785 22.1238 19.6583 21.5258 19.6184 20.9279 19.6583 20.3698 19.6981 19.3334 19.6981 18.3368 19.738 17.3403 19.7779 16.6227 19.7779 15.9052 19.8177 15.2275L19.9373 13.6729C19.9373 13.5134 19.9772 13.354 20.017 13.1547L20.2562 12.0784C20.2961 11.7993 20.615 11.5203 20.894 11.4804L21.2129 11.4804C21.771 11.4804 21.8507 11.6399 21.8906 12.0385 21.9304 12.1581 21.9304 12.2378 21.9703 12.3176 22.2095 13.1945 22.2892 14.0715 22.3291 14.9485 22.3689 16.0647 22.4487 17.1808 22.4487 18.297 22.4487 18.4165 22.4088 18.4963 22.4487 18.6159 22.5682 19.6922 22.5682 20.7684 22.5682 21.8447 22.5682 22.4028 22.6081 22.9609 22.6081 23.519L22.6081 23.798C22.7277 24.4757 22.6878 25.1533 22.6878 25.7911 22.6878 25.9506 22.7277 26.0702 22.7277 26.2296 22.7277 26.2695 22.8074 26.3094 22.8473 26.3094L22.9669 26.3094 25.1195 25.4722C25.2789 25.3925 25.3985 25.3128 25.3985 25.1135 25.4384 24.2365 25.4384 23.3994 25.4782 22.5224 25.4782 21.2867 25.4782 20.0509 25.5181 18.7753 25.5181 18.1375 25.5978 17.4598 25.6377 16.822 25.6377 16.5031 25.6377 16.2241 25.6775 15.9451 25.6775 14.7492 25.7174 13.5932 25.7573 12.3973 25.7971 11.7595 25.8768 11.0818 25.9167 10.444 25.9167 10.2846 25.9566 10.1251 25.9964 9.96566ZM48.2856 11.8791C48.2856 11.9189 48.3255 11.9189 48.3255 11.9588 48.485 12.6365 48.5248 13.354 48.5248 14.1114L48.485 14.1512C48.3654 14.789 48.4052 14.9086 47.6877 14.9485 47.4485 14.9884 47.1695 14.9884 46.8904 14.9884L40.632 14.9884C40.3928 14.9884 40.1537 14.9884 39.9145 15.0282 39.7152 15.0282 39.6354 15.1079 39.6354 15.2674L39.6354 15.9849C39.6354 15.9849 39.6753 16.4633 39.6753 16.7025L39.6753 18.0179C39.6753 18.576 39.6753 19.0942 39.755 19.6523L39.755 20.2502 39.755 25.3526C39.755 25.5918 39.7152 25.831 39.7949 26.11 39.9145 26.0702 39.9942 26.11 40.0739 26.0702 40.9908 25.7513 41.9076 25.5918 42.8245 25.552 43.4623 25.4722 44.1399 25.4324 44.7777 25.3128 45.0966 25.2331 45.4155 25.1932 45.7743 25.1932 46.1331 25.1533 46.4121 25.1135 46.731 24.9142 46.8107 24.8743 46.9702 24.8743 47.0499 24.9939 47.2093 25.1932 47.4087 25.3526 47.6478 25.5121 48.0066 25.7513 48.2059 26.3891 47.9269 26.9472 47.608 27.5451 47.4485 27.7843 46.6114 27.9437 46.3324 27.9836 46.0932 28.0234 45.8142 28.0633 44.977 28.1829 44.1399 28.3025 43.3028 28.3822 43.1832 28.4221 43.0238 28.4221 42.9042 28.4221 41.8677 28.5018 40.911 28.7808 39.9942 29.2193 39.8348 29.2991 39.755 29.4186 39.755 29.618L39.755 30.6942 39.755 34.6805C39.755 34.8798 39.755 35.0791 39.7949 35.3183 39.7949 35.398 39.8348 35.4379 39.9145 35.4778L40.5523 35.4778 46.8506 35.4778 47.3289 35.4778C48.0465 35.5176 47.9667 35.4379 48.0863 36.1156 48.166 36.6736 48.166 37.1919 48.166 37.7101L48.166 37.8695C47.9667 38.4675 48.0465 38.5871 47.3289 38.5871 46.2526 38.6269 45.1763 38.6269 44.0602 38.5871L41.7482 38.5871C40.7915 38.5871 39.7949 38.5871 38.7983 38.5472 38.2402 38.5073 37.722 38.4276 37.164 38.3479 37.0444 38.3479 36.9646 38.2283 36.9248 38.1087 36.6059 37.2317 36.6059 37.2317 36.6059 36.275 36.566 35.1987 36.566 34.0826 36.566 32.9664L36.566 24.954C36.6059 22.5623 36.6457 20.1306 36.6457 17.7389 36.6457 16.9416 36.7255 16.1444 36.7255 15.3471 36.7255 15.1877 36.7653 14.9884 36.6059 14.8289 36.5262 14.51 36.4066 14.231 36.3268 13.9519 36.2471 13.3141 36.2073 12.6763 36.4066 12.0784 36.4863 11.9189 36.566 11.8392 36.7255 11.8392L37.2437 11.8392 47.6478 11.8392C47.8471 11.8392 48.0863 11.7993 48.2856 11.8791ZM60.5354 14.9086C60.4158 14.3904 60.376 13.9121 60.376 13.4337 60.376 13.1945 60.3361 12.9155 60.376 12.6365 60.4557 12.1182 60.5354 11.9987 61.0935 11.9588 61.253 11.9189 61.4124 11.9189 61.532 11.9588 62.2894 11.9588 63.0468 11.8791 63.7643 11.6399 63.844 11.6399 63.9238 11.6 63.9636 11.6 64.442 11.5602 64.8805 11.5203 65.3588 11.4804 65.5581 11.4804 65.7574 11.4804 65.9169 11.5203 66.2358 11.5203 66.5148 11.5602 66.7939 11.6 66.9135 11.6399 67.033 11.6399 67.1526 11.6798 67.5911 11.7993 68.0296 11.9189 68.508 11.8791 68.7471 11.8791 68.9863 11.9189 69.2255 12.0385 69.3849 12.1182 69.5843 12.198 69.7437 12.2378 69.9032 12.3176 70.0626 12.3574 70.2221 12.4371 70.7004 12.7162 71.1389 13.0351 71.6172 13.354 71.7368 13.4337 71.8166 13.5533 71.8963 13.6729 72.2152 14.0317 72.5341 14.4303 72.8929 14.7492 73.0922 14.9086 73.2118 15.1079 73.3313 15.3073 73.6502 15.7457 73.9293 16.2241 74.0887 16.7822 74.2083 17.1409 74.3279 17.4997 74.4076 17.8983 74.4076 18.0976 74.4874 18.2571 74.5671 18.4564 74.6069 18.576 74.6468 18.6956 74.6468 18.8152 74.6867 19.5327 74.8063 20.2502 74.9258 20.9678L74.9258 21.0475C74.886 21.8049 75.0853 22.5623 75.0853 23.3595 75.1252 24.077 75.165 24.7946 75.2846 25.5121 75.3245 25.7513 75.4042 25.9905 75.4441 26.2296 75.4441 26.3891 75.4839 26.5485 75.4839 26.7478 75.5238 27.2262 75.5637 27.7045 75.5637 28.1829 75.5637 28.7011 75.5238 29.2193 75.5238 29.6977 75.5238 30.2159 75.4441 30.7341 75.3643 31.2125 75.2846 31.8104 75.2846 32.3685 75.1252 32.9664L75.1252 33.3252C75.1252 33.5644 75.0853 33.8035 74.9657 34.0028 74.886 34.242 74.8063 34.4812 74.7664 34.7204 74.7664 34.84 74.7265 34.9994 74.6468 35.119 74.5272 35.398 74.4874 35.6771 74.4874 35.996 74.4874 36.1953 74.4076 36.3547 74.288 36.5142 74.1286 36.7135 74.009 36.9527 73.9293 37.2317 73.8496 37.4709 73.6502 37.6303 73.4908 37.7898 73.4908 37.8297 73.4509 37.8695 73.3712 37.9094 73.0922 37.9891 72.853 38.1884 72.6138 38.4276 72.574 38.4675 72.4544 38.5073 72.3348 38.5073 72.0956 38.5073 71.8963 38.5472 71.6571 38.6269 71.0193 38.7066 70.3815 38.906 69.7038 38.906 69.1059 38.9458 68.508 38.9458 67.91 38.906 66.8337 38.8661 65.7973 38.906 64.7609 38.906 64.6413 38.906 64.5217 38.906 64.4021 38.9458L64.2028 38.9458C63.6447 38.9458 63.1265 38.906 62.6083 38.8661 62.5286 38.8262 62.409 38.7864 62.3293 38.7465 62.1698 38.5073 61.8908 38.4675 61.6516 38.3479 61.5719 38.308 61.4921 38.2283 61.4921 38.1087 61.532 37.6303 61.4921 37.1121 61.6914 36.6338 61.7313 36.4743 61.811 36.3149 61.8509 36.1554 61.9705 35.8764 62.1698 35.7967 62.4488 35.7568 62.6482 35.7169 62.8873 35.7568 63.0866 35.8365 63.1664 35.8365 63.286 35.7568 63.286 35.6771 63.3258 35.4379 63.3258 35.2386 63.3258 34.9994L63.3258 27.5451 63.3258 19.0145 63.3258 15.5464C63.3258 15.387 63.3258 15.2275 63.286 15.1079 63.286 15.0282 63.2062 14.9884 63.1265 14.9485 62.8076 14.9086 62.4887 14.9086 62.2097 14.9884 61.8509 15.1079 61.4921 15.1079 61.1334 14.9884 60.9739 14.9086 60.7347 14.9086 60.5354 14.9086ZM66.3952 14.7492C66.3952 14.8289 66.3554 14.8688 66.3554 14.9485L66.3554 15.6262 66.3554 34.9197 66.3554 35.4379 66.3554 35.6771C66.3952 35.7568 66.475 35.8365 66.5547 35.8365L66.9932 35.8365C67.631 35.8764 68.2289 35.8365 68.8269 35.8764 69.3052 35.8764 69.7437 35.7967 70.1822 35.7169 70.4612 35.6771 70.7403 35.5575 71.0193 35.4778 71.1788 35.398 71.2585 35.3183 71.2585 35.1589 71.2983 34.84 71.3781 34.5609 71.4977 34.3217 71.6172 34.0427 71.6571 33.7637 71.7368 33.4846 71.7767 33.365 71.8166 33.2853 71.8564 33.2056 71.976 33.0063 72.0159 32.807 72.0557 32.6077 72.1355 32.1293 72.1753 31.6908 72.2551 31.2125 72.4544 30.0166 72.4544 28.8207 72.4544 27.6248 72.4544 27.2262 72.4145 26.8276 72.2949 26.4688 72.2152 26.3094 72.2152 26.1499 72.1753 25.9905 72.1355 25.5918 72.1355 25.1932 72.0557 24.8344 72.0159 24.675 72.0159 24.4757 72.0159 24.3162 72.0557 23.7183 72.0159 23.1602 71.9361 22.5623 71.8963 22.3231 71.8963 22.0441 71.8564 21.765 71.8564 21.6454 71.8564 21.486 71.8166 21.3664 71.7368 20.6887 71.6172 20.0111 71.4977 19.3334 71.4179 18.6956 71.1788 18.1375 70.9794 17.5396 70.9396 17.3403 70.82 17.1808 70.7004 17.0214 70.4214 16.7423 70.1423 16.4234 69.9032 16.1045 69.664 15.8255 69.4248 15.6262 69.1059 15.4667 68.7073 15.1877 68.3086 15.0681 67.8303 14.9485 67.631 14.9086 67.4317 14.8688 67.1925 14.8289 66.9533 14.789 66.6743 14.7093 66.3952 14.7492ZM90.9168 11.8791C90.9168 11.9189 90.9566 11.9189 90.9566 11.9588 91.1161 12.6365 91.1559 13.354 91.1559 14.1114L91.1161 14.1512C90.9965 14.789 91.0363 14.9086 90.3188 14.9485 90.0796 14.9884 89.8006 14.9884 89.5216 14.9884L83.2631 14.9884C83.0239 14.9884 82.7848 14.9884 82.5456 15.0282 82.3463 15.0282 82.2666 15.1079 82.2666 15.2674L82.2666 15.9849C82.2666 15.9849 82.3064 16.4633 82.3064 16.7025L82.3064 18.0179C82.3064 18.576 82.3064 19.0942 82.3861 19.6523L82.3861 20.2502 82.3861 25.3526C82.3861 25.5918 82.3463 25.831 82.426 26.11 82.5456 26.0702 82.6253 26.11 82.705 26.0702 83.6219 25.7513 84.5387 25.5918 85.4556 25.552 86.0934 25.4722 86.771 25.4324 87.4088 25.3128 87.7277 25.2331 88.0466 25.1932 88.4054 25.1932 88.7642 25.1533 89.0432 25.1135 89.3621 24.9142 89.4418 24.8743 89.6013 24.8743 89.681 24.9939 89.8405 25.1932 90.0398 25.3526 90.2789 25.5121 90.6377 25.7513 90.837 26.3891 90.558 26.9472 90.2391 27.5451 90.0796 27.7843 89.2425 27.9437 88.9635 27.9836 88.7243 28.0234 88.4453 28.0633 87.6082 28.1829 86.771 28.3025 85.9339 28.3822 85.8143 28.4221 85.6549 28.4221 85.5353 28.4221 84.4989 28.5018 83.5422 28.7808 82.6253 29.2193 82.4659 29.2991 82.3861 29.4186 82.3861 29.618L82.3861 30.6942 82.3861 34.6805C82.3861 34.8798 82.3861 35.0791 82.426 35.3183 82.426 35.398 82.4659 35.4379 82.5456 35.4778L83.1834 35.4778 89.4817 35.4778 89.96 35.4778C90.6776 35.5176 90.5979 35.4379 90.7174 36.1156 90.7972 36.6736 90.7972 37.1919 90.7972 37.7101L90.7972 37.8695C90.5979 38.4675 90.6776 38.5871 89.96 38.5871 88.8838 38.6269 87.8075 38.6269 86.6913 38.5871L84.3793 38.5871C83.4226 38.5871 82.426 38.5871 81.4294 38.5472 80.8714 38.5073 80.3531 38.4276 79.7951 38.3479 79.6755 38.3479 79.5958 38.2283 79.5559 38.1087 79.237 37.2317 79.237 37.2317 79.237 36.275 79.1971 35.1987 79.1971 34.0826 79.1971 32.9664L79.1971 24.954C79.237 22.5623 79.2769 20.1306 79.2769 17.7389 79.2769 16.9416 79.3566 16.1444 79.3566 15.3471 79.3566 15.1877 79.3964 14.9884 79.237 14.8289 79.1573 14.51 79.0377 14.231 78.958 13.9519 78.8782 13.3141 78.8384 12.6763 79.0377 12.0784 79.1174 11.9189 79.1971 11.8392 79.3566 11.8392L79.8748 11.8392 90.2789 11.8392C90.4783 11.8392 90.7174 11.7993 90.9168 11.8791ZM103.2 27.5451C103.28 27.0269 103.32 26.5087 103.32 26.0303L103.32 25.0337C103.32 24.7148 103.32 24.4358 103.4 24.1169 103.44 23.9575 103.44 23.798 103.479 23.6386 103.519 23.2001 103.639 22.7217 103.798 22.2832 104.117 21.4062 104.237 20.4495 104.157 19.4928 104.157 19.3334 104.157 19.1739 104.197 19.0145 104.237 18.576 104.277 18.0976 104.356 17.6592 104.356 17.3403 104.476 17.1011 104.516 16.822 104.715 15.9451 104.835 15.0681 104.795 14.1512 104.795 13.9121 104.795 13.633 104.875 13.3939 104.954 13.0351 104.994 12.6763 105.034 12.3176 105.114 11.8791 105.194 11.4406 105.273 11.042 105.273 10.9622 105.313 10.8825 105.353 10.8028 105.433 10.8028 105.552 10.7629 105.672 10.7629 106.27 10.8028 106.868 10.8028 107.466 10.8028 107.745 10.8028 107.984 10.8825 108.223 10.9622 108.343 11.0021 108.422 11.0818 108.462 11.2014 108.582 11.321 108.622 11.5203 108.622 11.6798 108.622 12.0385 108.582 12.3574 108.502 12.6763 108.383 13.3939 108.303 14.0715 108.223 14.789 108.143 15.9451 108.024 17.1011 107.745 18.2571 107.665 18.6159 107.665 18.9746 107.625 19.3334L107.625 20.3698C107.625 20.6489 107.585 20.9279 107.585 21.1671 107.506 21.6454 107.426 22.1238 107.306 22.6021 107.306 22.7616 107.266 22.8812 107.227 23.0008 106.868 23.8379 106.748 24.7148 106.748 25.5918 106.748 26.1898 106.748 26.7478 106.708 27.3458 106.629 28.2626 106.509 29.1795 106.23 30.0963 106.071 30.6544 105.951 31.2523 105.871 31.8503 105.831 32.4083 105.712 33.0063 105.712 33.6042 105.712 33.7637 105.712 33.8833 105.672 34.0028 105.512 34.6008 105.473 35.2386 105.194 35.7967 105.114 36.3149 104.875 36.7932 104.635 37.2317 104.396 37.6303 104.157 38.0688 103.838 38.4675 103.798 38.5073 103.719 38.5871 103.719 38.6668 103.679 38.9458 103.519 39.0654 103.28 39.1053 103.121 39.185 103.001 39.2647 102.882 39.3444 102.762 39.464 102.642 39.5438 102.483 39.6235 102.443 39.6235 102.363 39.6633 102.323 39.6633 102.005 39.5438 101.686 39.5836 101.407 39.4242 101.247 39.3444 101.088 39.3046 100.928 39.2647 100.689 39.2249 100.45 39.1451 100.37 38.8661 100.33 38.8262 100.29 38.7864 100.29 38.7465 99.852 38.4675 99.6527 37.9492 99.3736 37.5506 99.2939 37.3912 99.2939 37.2317 99.254 37.1121 99.1743 36.873 99.0149 36.7135 98.975 36.4743 98.9351 36.275 98.9351 36.1156 98.8554 35.9163 98.696 35.5176 98.5764 35.1589 98.4568 34.8001 98.3372 34.5609 98.2575 34.3217 98.1777 34.0826L97.3406 31.0929C97.1014 30.2956 96.9819 29.4585 96.8224 28.6214 96.6231 27.5451 96.4636 26.4289 96.2643 25.3526 96.2245 24.9939 96.1447 24.675 96.0252 24.3162 95.8258 23.6386 95.6664 22.921 95.5468 22.2035 95.4671 21.8049 95.4671 21.4461 95.4671 21.0475 95.4671 20.4097 95.3874 19.732 95.2279 19.0942 95.1083 18.3767 94.9887 17.699 94.9489 16.9815 94.909 16.3437 94.7894 15.7059 94.7097 15.0681L94.7097 14.9485C94.5104 14.5897 94.5502 14.1911 94.5502 13.8323 94.5502 13.633 94.5901 13.4736 94.5502 13.2743 94.5104 12.6365 94.7097 11.9588 94.7894 11.321 94.7894 11.2014 94.8691 11.1217 94.9887 11.0818L95.7063 10.9622C96.2245 10.9224 96.7028 10.9622 97.1812 11.042 97.4203 11.0818 97.6595 11.0818 97.8987 11.2014 97.9784 11.2413 98.0183 11.321 98.0582 11.4007 98.0582 11.6399 98.098 11.8791 98.0582 12.1182 98.0183 12.7561 98.0183 13.354 98.0582 13.9918L98.4169 17.3403C98.4568 17.5794 98.5365 17.8186 98.5764 18.0578L98.696 18.6557C98.696 18.9746 98.7358 19.3334 98.8155 19.6523 98.8554 19.9313 98.8953 20.2104 98.8953 20.4894L98.8953 21.0475C98.9351 22.0042 98.9351 22.0042 99.2142 22.921 99.254 22.9609 99.2939 23.0406 99.2939 23.1203 99.4135 23.9973 99.6925 24.8344 99.7722 25.7114 99.852 26.5884 100.011 27.4255 100.171 28.2626L100.53 29.8173C100.569 30.0963 100.649 30.3753 100.769 30.6544 100.888 30.9334 101.008 31.2125 101.048 31.5314 101.088 31.7307 101.167 31.9699 101.207 32.1692 101.367 32.6077 101.486 33.0461 101.606 33.5245 101.686 33.7637 101.765 34.0028 101.925 34.242L101.965 34.2819C102.005 34.2819 102.044 34.242 102.084 34.242 102.124 33.963 102.204 33.7238 102.244 33.4448 102.323 32.9266 102.403 32.4083 102.403 31.8503 102.403 31.6509 102.443 31.4118 102.483 31.2125 102.563 30.774 102.642 30.3753 102.682 29.9767 102.762 29.5781 102.882 29.1795 103.001 28.7808 103.041 28.6214 103.081 28.4221 103.161 28.2228 103.161 28.1032 103.121 28.0234 103.001 27.9836 102.961 27.9437 102.921 27.9437 102.882 27.9039 102.802 27.864 102.802 27.7045 102.882 27.6647 102.961 27.6248 103.081 27.585 103.2 27.5451ZM134.903 40.2214C134.704 40.3809 134.465 40.4207 134.265 40.5005 133.827 40.62 133.349 40.6998 132.87 40.7795L132.591 40.7795C132.153 40.7396 131.993 40.7795 131.874 40.1417 131.834 39.9424 131.794 39.7431 131.754 39.5039 131.754 39.2249 131.674 38.9458 131.595 38.6668 131.355 38.1087 131.236 37.5108 131.076 36.9527 131.037 36.7932 131.037 36.6736 131.037 36.5142 130.997 36.1953 130.957 35.9163 130.917 35.5974 130.837 35.119 130.757 35.1589 130.439 35.398 130.199 35.5575 130 35.7967 129.841 35.996 129.681 36.1953 129.522 36.3547 129.283 36.4345 129.203 36.4743 129.163 36.5142 129.083 36.5541 128.724 36.8331 128.326 36.9128 127.887 36.873 127.529 36.8331 127.21 36.8331 126.891 36.8331L126.652 36.8331C126.173 36.7135 125.735 36.6338 125.256 36.6736 125.177 36.6736 125.097 36.6338 125.017 36.6338 124.659 36.4743 124.3 36.3946 123.941 36.3149 123.821 36.275 123.662 36.2352 123.622 36.1554 123.423 35.9163 123.144 35.7967 122.865 35.7169 122.586 35.5974 122.346 35.4379 122.147 35.1589 122.107 35.0791 122.028 34.9596 121.948 34.8798 121.589 34.6805 121.469 34.3616 121.43 34.0028 121.43 33.7637 121.35 33.5644 121.27 33.365 121.111 32.9664 120.951 32.5279 120.832 32.0894 120.553 31.2922 120.513 30.4949 120.513 29.6578 120.553 27.9836 120.593 26.3094 120.593 24.6351L120.593 23.9973C120.593 23.1203 120.632 22.2832 120.752 21.4062 120.792 20.8482 120.872 20.2901 120.752 19.6922 120.712 19.5327 120.712 19.3733 120.752 19.2138 120.792 18.8152 120.832 18.4165 120.832 18.0578L120.832 17.7787C121.031 17.1011 120.991 16.4234 121.23 15.7856 121.31 15.5066 121.35 15.2275 121.39 14.9485 121.469 14.4303 121.589 13.9519 121.709 13.4736 121.788 13.2344 121.828 12.9554 121.868 12.6763 121.908 12.3176 121.988 11.9987 122.267 11.7196 122.346 11.6399 122.426 11.5203 122.466 11.4007 122.546 11.1615 122.745 10.9622 122.944 10.8426 123.303 10.6035 123.662 10.3244 124.021 10.0853 124.14 10.0055 124.26 9.96566 124.419 9.96566 124.659 9.96566 124.898 9.9258 125.137 9.84608L125.177 9.84608C126.014 9.80621 126.851 9.64676 127.688 9.68663 128.047 9.68663 128.366 9.76635 128.685 9.80621 128.764 9.80621 128.844 9.84608 128.884 9.88594 129.083 9.96566 129.283 10.0853 129.482 10.165 129.881 10.3643 130.239 10.5636 130.478 10.9622 130.558 11.1217 130.718 11.2413 130.877 11.3609 130.997 11.4804 131.116 11.6 131.156 11.7595 131.196 12.0784 131.355 12.3574 131.475 12.6365 131.674 12.9554 131.754 13.2743 131.794 13.6729L131.794 13.8722C131.953 14.5499 131.913 15.2674 131.874 15.9451 131.834 16.3836 131.874 16.822 131.874 17.2207 131.834 17.4598 131.834 17.6592 131.794 17.8983L131.794 18.3767C131.794 19.3334 131.674 20.2901 131.475 21.2468 131.475 21.3265 131.435 21.4062 131.395 21.5258 131.316 21.765 131.156 21.8846 130.877 21.9245 130.399 22.0042 129.92 22.0441 129.442 21.9245 129.283 21.8846 129.083 21.8846 128.884 21.8447 128.764 21.8447 128.605 21.765 128.485 21.7251 128.406 21.6853 128.326 21.6056 128.326 21.486 128.326 21.2867 128.326 21.1272 128.366 20.9279 128.445 20.2104 128.565 19.4928 128.645 18.7753 128.724 17.6193 128.764 16.4633 128.764 15.2674 128.764 15.0681 128.764 14.8289 128.724 14.6296 128.685 14.1114 128.445 13.6729 128.166 13.2344 127.967 12.9554 127.688 12.7959 127.289 12.7959 126.771 12.7959 126.253 12.8358 125.735 12.9155 125.575 12.9554 125.416 13.0351 125.296 13.1547 124.977 13.5134 124.738 13.8722 124.659 14.3506 124.579 14.7492 124.459 15.1478 124.459 15.5464 124.419 15.666 124.419 15.7856 124.379 15.9052 124.18 16.5829 124.18 17.3403 123.981 18.0179 123.981 18.7354 123.861 19.453 123.861 20.1705 123.861 21.0076 123.861 21.8447 123.702 22.6819 123.662 22.9609 123.582 23.2399 123.662 23.519 123.702 23.6386 123.662 23.7183 123.662 23.8379 123.702 24.1169 123.662 24.4358 123.622 24.7547 123.582 25.0736 123.662 25.3526 123.662 25.6716 123.702 25.831 123.662 25.9506 123.662 26.11 123.622 26.2296 123.622 26.3492 123.622 26.4688 123.582 27.585 123.582 28.6613 123.582 29.7774 123.542 30.4152 123.662 31.0131 123.901 31.6111 124.021 31.93 124.14 32.2888 124.26 32.6077 124.379 32.8468 124.499 33.0063 124.738 33.1259 125.017 33.2853 125.296 33.4049 125.615 33.4448 125.815 33.4846 125.974 33.5245 126.173 33.5245 126.652 33.5644 127.09 33.6839 127.529 33.6042 127.728 33.5245 127.848 33.365 127.967 33.2056 128.087 33.086 128.166 32.8867 128.166 32.6874 128.246 31.6908 128.326 30.6544 128.286 29.618 128.286 29.2193 128.206 28.8207 128.127 28.4221 128.087 28.2626 127.967 28.143 127.808 28.143 127.25 28.0633 126.652 27.864 126.054 27.864 125.775 27.9039 125.535 27.7444 125.296 27.6647 125.217 27.6248 125.137 27.5451 125.097 27.4654 124.898 26.8276 124.858 26.1499 125.057 25.4722 125.097 25.2331 125.256 25.0736 125.535 24.9939 125.575 24.9939 125.655 24.9142 125.735 24.954 126.014 24.954 126.253 24.8344 126.492 24.7547 126.771 24.7148 127.01 24.8743 127.25 24.9142L127.848 24.9142C128.087 24.9142 128.326 24.9142 128.565 24.9939L128.764 24.9939C129.203 24.8743 129.601 24.9939 130 25.1533 130.12 25.1932 130.199 25.1932 130.319 25.1932 130.478 25.2331 130.638 25.2331 130.797 25.2729 130.917 25.3128 131.037 25.3128 131.156 25.2729 131.355 25.1533 131.595 25.1533 131.874 25.1135 132.033 25.2331 132.232 25.3526 132.392 25.4722 132.511 25.7513 132.591 25.9905 132.711 26.2695 132.79 26.5087 132.87 26.7478 132.91 27.0269 132.91 27.1066 132.91 27.1863 132.95 27.2262 133.189 27.7843 133.109 28.3424 133.03 28.8606 132.91 29.4984 132.91 30.0963 132.99 30.7341 133.07 31.4118 133.189 32.0894 133.388 32.7671 133.667 33.7238 133.827 34.7204 134.026 35.7169 134.066 35.8764 134.066 35.996 134.066 36.1554 134.106 36.3946 134.146 36.6338 134.305 36.8331 134.465 37.0723 134.544 37.3513 134.584 37.6303 134.624 37.9492 134.704 38.2283 134.784 38.5472 134.863 38.7864 134.903 39.0654 134.903 39.3046L134.903 40.2214ZM137.181 11.6399C137.301 11.6 137.421 11.6 137.54 11.5203 138.058 11.2811 138.577 11.321 139.135 11.321 139.254 11.3609 139.374 11.3609 139.454 11.4007 139.693 11.4406 139.852 11.5602 139.892 11.8392 139.972 12.1182 140.012 12.3973 140.012 12.6763 140.051 13.2743 140.171 13.8323 140.131 14.4303 140.211 15.5066 140.131 16.543 140.171 17.6193 140.171 17.8186 140.211 18.0578 140.211 18.2571 140.211 18.4564 140.251 18.6557 140.251 18.855L140.251 22.6819C140.251 22.9609 140.291 23.2001 140.291 23.4791L140.291 24.1568 140.291 29.4984 140.291 29.9369C140.291 30.0963 140.331 30.2558 140.41 30.4152 140.57 30.6544 140.61 30.9733 140.649 31.2922 140.649 31.4118 140.689 31.5314 140.769 31.6509 140.968 32.0894 141.128 32.5279 141.287 33.0063 141.407 33.3252 141.566 33.6042 141.805 33.8434 142.045 34.1224 142.244 34.3616 142.483 34.6406 142.563 34.7204 142.643 34.8001 142.722 34.84 142.922 34.9994 143.161 35.119 143.4 35.119 143.759 35.1589 144.157 35.1589 144.476 34.9994 144.556 34.9596 144.636 34.8798 144.676 34.8001 144.795 34.6406 144.875 34.4812 144.915 34.2819 144.955 33.8434 145.074 33.4049 145.194 33.0063 145.313 32.7272 145.353 32.4881 145.353 32.209 145.393 31.93 145.473 31.6111 145.592 31.332 145.832 30.5747 145.951 29.7774 145.951 28.9802L145.951 28.143 145.951 27.5451C145.792 27.2661 145.911 27.0269 145.951 26.7877 145.991 26.2296 145.991 25.7114 145.951 25.1932 145.871 24.2365 145.911 23.2399 145.911 22.2832 145.911 20.5293 145.951 18.8152 145.951 17.0612 145.951 15.9451 145.991 14.8289 146.031 13.7128 146.031 13.3939 146.071 13.075 146.15 12.7959 146.19 12.5567 146.19 12.3176 146.23 12.0784 146.27 11.9987 146.31 11.9189 146.429 11.8791 146.509 11.8791 146.589 11.8791 146.669 11.8392 147.306 11.5203 147.944 11.6 148.622 11.6399 148.781 11.6399 148.901 11.7196 149.06 11.7595 149.14 11.7595 149.22 11.8392 149.22 11.9189 149.339 12.5966 149.459 13.2344 149.459 13.8722 149.459 15.2275 149.499 16.5829 149.499 17.8983 149.539 22.8812 149.499 27.8241 149.499 32.7671 149.499 33.6042 149.539 33.6042 149.22 34.3217 148.861 35.1589 148.502 35.9561 148.144 36.7932 148.104 36.8331 148.104 36.873 148.064 36.9128 148.064 36.9527 148.024 36.9925 147.984 37.0324 147.705 37.1919 147.625 37.5506 147.346 37.7499 146.988 37.9492 146.669 38.2283 146.31 38.4675 146.071 38.6668 145.792 38.7864 145.473 38.8262 145.194 38.8262 144.875 38.9458 144.556 38.9458 144.396 38.9458 144.237 39.0255 144.078 39.0654 143.838 39.1451 143.639 39.1451 143.4 39.0255 143.24 38.9458 143.081 38.9458 142.922 39.0255 142.762 39.1053 142.603 39.0654 142.443 39.0255 142.164 38.9857 141.845 38.906 141.566 38.7864 141.207 38.6668 140.849 38.4675 140.57 38.1486 140.53 38.1087 140.45 38.029 140.37 37.9891 140.091 37.8297 139.892 37.6303 139.693 37.3912 139.414 37.0723 139.135 36.7932 138.816 36.5142 138.537 36.2352 138.337 35.9163 138.098 35.6372L138.058 35.5974C137.979 35.119 137.7 34.7204 137.7 34.2819 137.7 34.0028 137.66 33.7238 137.58 33.4846 137.5 33.086 137.381 32.7272 137.301 32.3286 137.022 31.4118 136.982 30.4551 136.743 29.5382 136.743 29.1795 136.703 28.8207 136.703 28.4221 136.703 25.831 136.703 23.2001 136.743 20.5691 136.743 20.1705 136.743 19.732 136.783 19.3334 136.783 18.4165 136.823 17.5396 136.823 16.6227 136.823 15.4268 136.862 14.2708 136.982 13.075 137.022 12.7162 137.062 12.3176 137.102 11.9588 137.102 11.8392 137.181 11.7595 137.181 11.6399ZM158.713 34.1623C158.713 32.7272 158.673 31.2922 158.713 29.897 158.713 29.4984 158.673 29.0997 158.514 28.741 158.474 28.6214 158.434 28.4619 158.434 28.3025 158.354 27.6248 158.155 27.0269 157.996 26.3891 157.956 26.2296 157.876 26.0702 157.836 25.9506 157.637 25.5918 157.477 25.2331 157.318 24.9142 156.879 24.0372 156.561 23.1602 156.282 22.2434 156.082 21.486 155.803 20.7684 155.444 20.0908 155.046 19.2537 154.727 18.3368 154.488 17.42 154.408 17.0214 154.288 16.6626 154.129 16.3038 153.93 15.8255 153.77 15.3471 153.611 14.8688 153.531 14.7093 153.491 14.5499 153.332 14.4701 153.172 14.3904 153.093 14.2708 153.093 14.1114 153.053 13.9918 153.053 13.8722 153.053 13.7526 153.053 13.3939 153.013 13.075 152.853 12.7561 152.813 12.6365 152.813 12.477 152.893 12.3574 152.973 12.198 153.013 12.0385 153.013 11.8392 153.013 11.7196 153.013 11.5602 153.053 11.4406 153.053 11.2413 153.132 11.1615 153.332 11.1217 153.451 11.0818 153.571 11.0818 153.73 11.0021 153.89 10.9622 154.049 10.9224 154.249 10.9224L155.325 10.9224C155.365 10.9224 155.365 10.8825 155.405 10.8825 156.042 10.9622 156.122 11.042 156.202 11.6 156.242 11.8392 156.242 12.0784 156.242 12.3574 156.242 12.5567 156.282 12.7561 156.361 12.9554 156.561 13.4736 156.72 14.0715 156.999 14.5897 157.079 14.7492 157.119 14.9086 157.159 15.1079 157.278 15.387 157.358 15.7059 157.477 15.9849 157.597 16.3038 157.717 16.5829 157.756 16.9018 157.796 17.42 157.996 17.8983 158.235 18.3767 158.713 19.2138 159.032 20.1306 159.351 21.0873 159.391 21.2867 159.431 21.486 159.51 21.6853 159.63 22.2434 159.829 22.7616 160.068 23.2399 160.108 23.3197 160.108 23.3197 160.148 23.3595 160.188 23.4392 160.268 23.3994 160.308 23.3595 160.587 22.9609 160.746 22.4825 160.866 22.0042 160.945 21.8447 160.945 21.6853 160.985 21.5258 161.105 21.1272 161.185 20.7286 161.384 20.3698 161.424 20.2901 161.424 20.2104 161.464 20.0908 161.623 19.5327 161.862 19.0145 162.141 18.4963 162.46 17.9382 162.66 17.3801 162.739 16.7822 162.779 16.5031 162.859 16.2241 162.978 15.9849L163.098 15.7457C163.297 14.9485 163.656 14.231 163.935 13.4337 164.095 12.9952 164.254 12.5567 164.214 12.0784 164.214 11.8791 164.254 11.6399 164.294 11.4406 164.334 11.0818 164.493 10.9622 164.852 10.9224L165.131 10.9224 166.088 10.9224C166.327 10.9224 166.566 10.9622 166.805 11.042 167.403 11.2014 167.403 11.1217 167.443 11.7993 167.443 11.9189 167.443 12.0784 167.483 12.198 167.722 12.4371 167.603 12.6763 167.523 12.9554 167.443 13.1547 167.403 13.354 167.403 13.5533L167.403 13.9519C167.403 14.1911 167.324 14.3904 167.084 14.51 166.965 14.5897 166.925 14.6695 166.885 14.789 166.726 15.3073 166.526 15.8255 166.327 16.3038 166.167 16.7025 166.048 17.0612 165.928 17.4598 165.729 18.4165 165.37 19.2935 164.972 20.1306 164.653 20.8083 164.374 21.486 164.214 22.1636 163.855 23.3197 163.417 24.4358 162.859 25.5121 162.62 25.9506 162.42 26.4289 162.301 26.9472 162.181 27.5451 162.102 28.143 161.942 28.741 161.902 28.9802 161.902 29.2193 161.902 29.4186L161.902 31.5314 161.902 38.7465C161.902 39.3843 161.942 39.3444 161.304 39.464 160.746 39.5438 160.148 39.5438 159.59 39.5438 159.391 39.5438 159.192 39.464 158.992 39.4242 158.873 39.3843 158.753 39.2647 158.753 39.1451 158.713 38.9857 158.713 38.8262 158.713 38.6668 158.713 37.3513 158.713 36.0757 158.673 34.7602L158.673 34.1623 158.713 34.1623ZM174.066 21.1272C174.465 21.6853 174.903 22.2035 175.382 22.7217 175.74 23.1602 176.179 23.4392 176.657 23.6784 177.016 23.798 177.335 23.9575 177.654 24.1169 178.212 24.4757 178.69 24.8344 179.129 25.2729 179.527 25.6716 179.926 26.11 180.365 26.4289 180.484 26.5485 180.564 26.6681 180.723 26.7877L181.042 26.7877C181.162 26.8276 181.242 26.8674 181.321 26.9472 181.6 27.2262 181.8 27.5451 181.879 27.9437 181.919 28.2626 181.999 28.5815 182.119 28.9004 182.238 29.2991 182.278 29.7375 182.318 30.176L182.318 31.332C182.318 31.5314 182.318 31.7705 182.437 31.9699 182.477 32.0496 182.477 32.1692 182.477 32.2888 182.517 32.5279 182.517 32.7671 182.557 32.9664 182.637 33.5245 182.637 34.0427 182.517 34.6008 182.477 34.6805 182.477 34.8001 182.477 34.9197 182.437 34.9994 182.437 35.119 182.398 35.2386 182.238 35.6372 182.158 36.0757 181.999 36.5142 181.999 36.5541 181.959 36.6338 181.919 36.6736 181.72 36.9527 181.56 37.2716 181.361 37.5506 181.281 37.6702 181.202 37.7898 181.082 37.9094 180.763 37.9891 180.444 38.1087 180.125 38.308 180.046 38.3877 179.926 38.4276 179.767 38.4276 179.647 38.4276 179.488 38.4675 179.328 38.4675 179.089 38.5073 178.93 38.5871 178.77 38.7864 178.611 38.9857 178.411 39.0654 178.172 39.1053L177.973 39.1053C177.734 39.1451 177.455 39.2249 177.215 39.2249 176.936 39.2249 176.697 39.1451 176.458 39.1053L176.059 39.1053C175.82 39.1053 175.581 39.0654 175.382 38.9458 175.023 38.7864 174.624 38.6668 174.266 38.5871 173.987 38.5073 173.747 38.3877 173.508 38.2283 173.269 38.0688 173.03 37.9094 172.791 37.7898 172.193 37.4709 171.794 36.9128 171.435 36.3149 171.395 36.1156 171.316 35.9163 171.316 35.7169 171.276 35.3183 171.156 34.9596 171.116 34.5609 170.997 33.963 170.877 33.365 170.917 32.7671 170.957 32.5678 170.957 32.3685 170.997 32.1692 171.037 31.8901 171.077 31.6111 171.077 31.332 171.077 31.1726 171.077 31.0131 171.116 30.8537 171.236 30.5747 171.196 30.3355 171.156 30.0963 171.077 29.8571 171.037 29.6578 170.957 29.4186 171.037 29.2193 171.116 29.02 171.196 28.7808 171.236 28.6613 171.356 28.5815 171.475 28.5815L171.954 28.5815C172.392 28.5417 172.87 28.5417 173.309 28.5417 173.508 28.5417 173.628 28.6214 173.747 28.741 173.827 28.8207 173.867 28.9004 173.867 28.9802 173.827 29.2193 173.867 29.4186 174.066 29.5781 174.146 29.6578 174.186 29.7774 174.146 29.9369 174.106 30.0166 174.066 30.1362 174.026 30.2558 173.947 30.4551 173.907 30.6942 173.947 30.9334 174.026 31.1726 173.987 31.4516 174.026 31.6908 174.026 31.9699 173.987 32.209 174.106 32.4881 174.146 32.6077 174.146 32.7272 174.106 32.8468 173.987 33.2056 174.026 33.5245 174.066 33.8833 174.066 34.0427 174.146 34.2022 174.305 34.3217 174.664 34.6406 175.023 34.9197 175.501 35.0791 175.621 35.119 175.78 35.1987 175.9 35.2386 176.099 35.3183 176.299 35.3582 176.538 35.3582 176.697 35.3582 176.897 35.3582 177.056 35.4379 177.614 35.5575 178.132 35.4778 178.65 35.2785 178.85 35.2386 179.049 35.119 179.248 35.0393 179.408 34.6008 179.567 34.2022 179.527 33.7238L179.527 30.8936 179.527 30.4949C179.527 30.2159 179.448 29.9767 179.169 29.8571 179.089 29.7774 179.009 29.6977 178.969 29.5781 178.89 29.2193 178.65 28.9403 178.371 28.7011 177.853 28.2228 177.375 27.7444 176.857 27.2661 176.737 27.1863 176.657 27.0667 176.498 27.0269 176.338 27.0269 176.139 26.9472 176.02 26.8674 175.74 26.708 175.461 26.6283 175.143 26.5485 174.345 26.3492 173.628 25.9905 173.03 25.4324 172.512 24.954 172.193 24.3959 171.874 23.8777 171.714 23.6386 171.595 23.3595 171.475 23.1203 171.276 22.7616 171.236 22.3231 171.116 21.9643 171.077 21.8846 171.116 21.8049 171.116 21.765 171.196 21.486 171.236 21.2468 171.077 21.0076 171.037 20.5293 170.917 20.0908 170.957 19.6124 170.997 19.1739 171.037 18.7354 170.997 18.297L170.997 18.1375C171.116 17.8186 171.116 17.5396 171.116 17.2207L171.116 15.3471C171.077 14.9485 171.196 14.5897 171.435 14.2708 171.515 14.1512 171.555 14.0715 171.635 13.9918 171.914 13.633 172.233 13.2344 172.551 12.8756 172.591 12.7959 172.671 12.7561 172.791 12.6763 173.149 12.5169 173.428 12.2777 173.747 12.0385 173.987 11.8392 174.266 11.6798 174.584 11.5602 174.864 11.4804 175.103 11.321 175.382 11.321 175.501 11.321 175.621 11.2811 175.78 11.2811 176.099 11.2811 176.418 11.2413 176.737 11.2014 176.936 11.1615 177.176 11.2014 177.375 11.2413 177.734 11.2811 178.053 11.321 178.411 11.321 178.65 11.3609 178.93 11.3609 179.169 11.4406 179.368 11.4804 179.567 11.6 179.767 11.7196 180.086 11.9189 180.325 12.2378 180.524 12.5567 180.683 12.7959 180.803 13.0351 181.002 13.2344 181.122 13.3939 181.242 13.5533 181.281 13.7526 181.321 13.8722 181.361 13.9918 181.441 14.1114 181.56 14.4701 181.68 14.8289 181.72 15.2275 181.76 15.387 181.8 15.5464 181.8 15.666 181.839 15.9849 181.959 16.264 182.198 16.4633 182.318 16.543 182.318 16.6227 182.318 16.7423 182.318 17.2207 182.318 17.699 182.278 18.1774 182.198 18.5361 182.198 18.8949 182.198 19.2537 182.198 19.7719 182.158 20.2502 182.039 20.7286 181.999 20.9279 181.999 21.0873 182.039 21.2468 182.079 21.3664 182.079 21.4461 182.079 21.5657 182.079 21.6454 182.079 21.6853 182.039 21.765 181.879 21.9245 181.72 22.0441 181.521 22.1238 181.082 22.2434 180.644 22.3231 180.165 22.4028 180.125 22.4427 180.046 22.4028 180.006 22.363 179.886 22.2434 179.727 22.0839 179.607 21.9245 179.607 21.8846 179.567 21.8049 179.567 21.765 179.527 21.486 179.488 21.2468 179.488 20.9678 179.527 20.609 179.488 20.2502 179.488 19.8915 179.488 19.6124 179.527 19.3334 179.448 19.0543 179.408 19.0145 179.408 18.9746 179.408 18.9348 179.488 18.2172 179.288 17.4997 179.129 16.822 179.129 16.7822 179.129 16.7423 179.089 16.7025 178.89 16.3437 178.73 15.9052 178.411 15.5863 178.212 15.3471 177.973 15.1079 177.734 14.9086 177.455 14.6695 177.136 14.5499 176.857 14.3904L176.657 14.3904C176.219 14.3904 175.82 14.5499 175.422 14.7492 175.342 14.789 175.302 14.8688 175.222 14.9086L174.664 15.4667C174.664 15.4667 174.266 15.8653 174.226 16.1444 174.226 16.264 174.186 16.3437 174.186 16.4234 174.146 16.5031 174.106 16.6227 174.146 16.7423 174.186 17.0612 173.987 17.42 174.026 17.7389L174.026 20.609C174.026 20.7684 174.066 20.9279 174.066 21.1272Z" fill="#FFFFFF" transform="matrix(1 0 0 1.00056 548.418 211.332)"/></g></svg>